{"title":"The Jungle Book 2016 Complete HDTS XVID AC3 HQ Hive-CM8","uid":14347087,"size":1498794758,"categoryP":"video","categoryS":"movies","magnet":"?xt=urn:btih:976d7ca469d81c3c92178ab6eb1ac627fe87259f&amp;dn=The+Jungle+Book+2016+Complete+HDTS+XVID+AC3+HQ+Hive-CM8&amp;tr=udp%3A%2F%2Ftracker.leechers-paradise.org%3A6969&amp;tr=udp%3A%2F%2Fzer0day.ch%3A1337&amp;tr=udp%3A%2F%2Fopen.demonii.com%3A1337&amp;tr=udp%3A%2F%2Ftracker.coppersurfer.tk%3A6969&amp;tr=udp%3A%2F%2Fexodus.desync.com%3A6969","seeders":3,"leechers":3,"uploader":"makintos13","files":3,"time":1460984474,"description":"screens:\r\n \nhttps://imgmak.com/image/TpR\r\n \nhttps://imgmak.com/image/Tpb\r\n \nhttps://imgmak.com/image/Tpx\r\n \nhttps://imgmak.com/image/Tpz\r\n \nhttps://imgmak.com/image/Tpk\r\n\r\nThe.Jungle.Book.2016.Complete.HDTS.XVID.AC3.HQ.Hive-CM8\r\n\r\nThx Hive\r\n\r\nCM8 Doing It Right The First Time\r\n\r\nSources:\r\n\r\nVideo: DVD-R HDCAM\r\nAudio: Exclusive Direct Line + Cadance Line\r\nthx\r\n\r\nNotes:\r\nhad the source files for nearly 2 weeks, but was stuck with no audio for it\r\nat least i had time to prepare my video. quality was good, dark scenes were ok but improveable\r\n\r\nfinally exclusive video+line went up, but 1min was missing in the middle of the movie, which i had now no audio\r\nalso video looked like a reencode of a reencode even had a watermark in it\r\n\r\nmine is clean and a lot better quality and has the missing minute inside\r\nthankfully cadance came up with the missing audio so i can do a full movie now\r\n\r\nEncode:\r\nquality on video was already very nice, daylight scenes were bright enough but darker scenes needed more\r\nso i split the video in pieces and made all dark scenes brighter, very watchable now\r\n\r\nLine Audio was nice, lipsynced to my video\r\n\r\ngot very nice and will do me till retail\r\nenjoy\r\n\r\nVideo: 720x304 @bitrate 1800 2pass\r\nAudio: Line AC3 2.0 Stereo\r\nSample: yes included \nhttp://www.imdb.com/title/tt3040964/\r\n\r\nGeneral\r\nComplete name: The.Jungle.Book.2016.Complete.HDTS.XVID.AC3.HQ.Hive-CM8.avi\r\nFormat: AVI\r\nFormat/Info: Audio Video Interleave\r\nFile size: 1.38 GiB\r\nDuration: 1h 35mn\r\nOverall bit rate: 2 068 Kbps\r\nWriting application: Nandub v1.0rc2\r\nWriting library: Nandub build 1853/release\r\n\r\nVideo\r\nID: 0\r\nFormat: MPEG-4 Visual\r\nFormat profile: Advanced   \r\nFormat settings, BVOP: 2\r\nFormat settings, QPel: Yes\r\nFormat settings, GMC: No warppoints\r\nFormat settings, Matrix: Default (H.263)\r\nMuxing mode: Packed bitstream\r\nCodec ID: XVID\r\nCodec ID/Hint: XviD\r\nDuration: 1h 35mn\r\nBit rate: 1 800 Kbps\r\nWidth: 720 pixels\r\nHeight: 304 pixels\r\nDisplay aspect ratio: 2.35:1\r\nFrame rate: 29.970 fps\r\nColor space: YUV\r\nChroma subsampling: 4:2:0\r\nBit depth: 8 bits\r\nScan type: Progressive\r\nCompression mode: Lossy\r\nBits/(Pixel*Frame): 0.274\r\nStream size: 1.20 GiB (87%)\r\nWriting library: XviD 1.2.1 (UTC 2008-12-04)\r\n\r\nAudio\r\nID: 1\r\nFormat: AC-3\r\nFormat/Info: Audio Coding 3\r\nMode extension: CM (complete main)\r\nFormat settings, Endianness: Big\r\nCodec ID: 2000\r\nDuration: 1h 35mn\r\nBit rate mode: Constant\r\nBit rate: 256 Kbps\r\nChannel(s): 2 channels\r\nChannel positions: Front: L R\r\nSampling rate: 48.0 KHz\r\nBit depth: 16 bits\r\nCompression mode: Lossy\r\nDelay relative to video: 50ms\r\nStream size: 175 MiB (12%)\r\nAlignment: Split accross interleaves\r\nInterleave, duration: 33 ms (1.00 video frame)\r\nInterleave, preload duration: 500 ms","torrent":{"xt":"urn:btih:976d7ca469d81c3c92178ab6eb1ac627fe87259f","amp;dn":"The+Jungle+Book+2016+Complete+HDTS+XVID+AC3+HQ+Hive-CM8","amp;tr":["udp%3A%2F%2Ftracker.leechers-paradise.org%3A6969","udp%3A%2F%2Fzer0day.ch%3A1337","udp%3A%2F%2Fopen.demonii.com%3A1337","udp%3A%2F%2Ftracker.coppersurfer.tk%3A6969","udp%3A%2F%2Fexodus.desync.com%3A6969"],"infoHash":"976d7ca469d81c3c92178ab6eb1ac627fe87259f","infoHashBuffer":{"type":"Buffer","data":[151,109,124,164,105,216,28,60,146,23,138,182,235,26,198,39,254,135,37,159]},"announce":[],"urlList":[]}}